<?xml version="1.0" encoding="UTF-8" standalone="no"?>
<svg width="133px" height="40px" viewBox="0 0 133 40" version="1.1" xmlns="http://www.w3.org/2000/svg" xmlns:xlink="http://www.w3.org/1999/xlink">
    <!-- Generator: Sketch 40 (33762) - http://www.bohemiancoding.com/sketch -->
    <title>Page 1</title>
    <desc>Created with Sketch.</desc>
    <defs>
        <polygon id="path-1" points="32.9396524 30 0 30 0 0.5645 32.9396524 0.5645 32.9396524 30"></polygon>
        <polygon id="path-3" points="0 39.4566 132.373 39.4566 132.373 -0.0004 0 -0.0004"></polygon>
    </defs>
    <g id="設計稿" stroke="none" stroke-width="1" fill="none" fill-rule="evenodd">
        <g id="Bm-Lp" transform="translate(-152.000000, -573.000000)">
            <g id="Page-1" transform="translate(152.000000, 573.000000)">
                <g id="Group-3" transform="translate(0.000000, 9.456600)">
                    <mask id="mask-2" fill="white">
                        <use xlink:href="#path-1"></use>
                    </mask>
                    <g id="Clip-2"></g>
                    <path d="M16.469,2.3505 C10.464,2.3505 4.164,7.4475 2.465,10.9555 L2.416,11.0585 C1.769,12.4455 1.292,14.5375 2.686,16.6345 C3.832,18.3575 6.212,21.3165 9.147,23.9835 C12.148,26.7115 14.749,28.2145 16.469,28.2145 C18.19,28.2145 20.79,26.7115 23.792,23.9835 C26.726,21.3155 29.106,18.3575 30.252,16.6345 C31.361,14.9665 31.439,12.9495 30.474,10.9555 C28.775,7.4475 22.474,2.3505 16.469,2.3505 M16.469,30.0005 C14.24,30.0005 11.373,28.4205 7.945,25.3045 C4.89,22.5285 2.402,19.4315 1.199,17.6235 C-0.247,15.4495 -0.39,12.8495 0.796,10.3045 L0.86,10.1715 C2.801,6.1635 9.68,0.5645 16.469,0.5645 C23.257,0.5645 30.137,6.1635 32.081,10.1775 C33.334,12.7635 33.212,15.4075 31.739,17.6235 C30.536,19.4315 28.048,22.5275 24.993,25.3045 C21.566,28.4205 18.698,30.0005 16.469,30.0005" id="Fill-1" fill="#FFB300" mask="url(#mask-2)"></path>
                </g>
                <path d="M23.1501,15.4947 C22.6091,15.1787 22.0511,14.8847 21.4771,14.6267 C19.7781,16.2247 17.8591,17.5817 16.4761,17.5817 C15.0941,17.5817 13.1751,16.2257 11.4761,14.6277 C10.9021,14.8857 10.3441,15.1787 9.8031,15.4957 C11.8281,17.4977 14.3541,19.3677 16.4761,19.3677 C18.5991,19.3677 21.1251,17.4967 23.1501,15.4947" id="Fill-4" fill="#FFE469"></path>
                <path d="M6.5241,11.5788 C7.0221,11.2608 7.5361,10.9598 8.0651,10.6768 C8.0041,10.5808 7.9471,10.4888 7.8971,10.4028 C7.4781,9.6708 7.2331,8.4518 7.8051,7.2248 C7.8391,7.1518 7.8761,7.0788 7.9151,7.0078 C9.3201,4.4408 12.9071,1.7858 16.4761,1.7858 C20.0461,1.7858 23.6321,4.4408 25.0371,7.0078 C25.7451,8.3008 25.4891,9.6448 25.0551,10.4028 C25.0061,10.4888 24.9491,10.5808 24.8881,10.6768 C25.4171,10.9598 25.9311,11.2608 26.4291,11.5788 C26.4941,11.4758 26.5551,11.3778 26.6051,11.2908 C27.3001,10.0768 27.6651,8.0898 26.6041,6.1498 C24.9721,3.1688 20.8681,-0.0002 16.4761,-0.0002 C12.0851,-0.0002 7.9811,3.1688 6.3471,6.1518 C6.2901,6.2558 6.2381,6.3608 6.1871,6.4688 C5.3261,8.3158 5.7061,10.1718 6.3481,11.2918 C6.3981,11.3778 6.4581,11.4758 6.5241,11.5788" id="Fill-6" fill="#FFE469"></path>
                <path d="M28.5292,13.2203 C28.5292,13.2203 30.7662,15.1643 31.7012,16.2183 L28.8912,9.6843 C28.8112,10.5723 28.4542,11.5823 28.0632,12.1853 L28.5292,13.2203 Z" id="Fill-8" fill="#FFD645"></path>
                <path d="M4.4237,13.2203 C4.4237,13.2203 2.1867,15.1643 1.2527,16.2183 L4.0617,9.6843 C4.1417,10.5723 4.4987,11.5823 4.8897,12.1853 L4.4237,13.2203 Z" id="Fill-10" fill="#FFD645"></path>
                <path d="M47.4615,20.1122 L55.3485,20.1122 L55.3485,18.7682 L47.4615,18.7682 L47.4615,16.2022 L55.3485,16.2022 L55.3485,14.8582 L47.4615,14.8582 L47.4615,12.3152 L57.9535,12.3152 L57.9535,22.6992 L47.4615,22.6992 L47.4615,20.1122 Z M45.8335,24.1522 L59.6705,24.1522 L59.6705,10.8622 L45.8335,10.8622 L45.8335,24.1522 Z" id="Fill-12" fill="#FFB300"></path>
                <path d="M60.3987,29.513 L61.8807,28.314 C60.4007,27.358 57.8607,26.019 55.8647,25.028 L54.5317,26.036 C56.4847,27.075 59.0247,28.535 60.3987,29.513" id="Fill-14" fill="#FFB300"></path>
                <path d="M44.6355,29.4418 C46.6745,28.6558 49.1455,27.2978 50.8035,26.0568 L49.2395,25.0028 C47.9185,26.1088 45.5295,27.4298 43.3645,28.2538 C43.8155,28.6228 44.3235,29.0968 44.6355,29.4418" id="Fill-16" fill="#FFB300"></path>
                <path d="M78.6802,20.7571 C79.1612,22.1801 79.8622,23.4921 80.7372,24.6091 C81.7002,23.4921 82.5102,22.2231 83.0352,20.7571 L78.6802,20.7571 Z M79.1172,13.7971 C79.1172,15.5701 78.7242,17.7371 76.7762,19.1811 C76.5792,18.8971 75.9882,18.3491 75.7042,18.1531 C77.4112,16.9051 77.6732,15.2201 77.6732,13.7761 L77.6732,10.6901 L83.4072,10.6901 L83.4072,15.8771 C83.4072,16.4671 83.4292,16.6641 83.6912,16.6641 L84.7202,16.6641 C84.9832,16.6641 85.3332,16.6211 85.5742,16.5551 L85.7272,17.9121 C85.4652,17.9991 85.0702,18.0211 84.7422,18.0211 L83.5822,18.0211 C82.2252,18.0211 81.9412,17.4301 81.9412,15.8321 L81.9412,12.0251 L79.1172,12.0251 L79.1172,13.7971 Z M84.8732,19.7281 C84.2172,22.1141 83.1012,24.0831 81.7002,25.6811 C82.9042,26.8631 84.3702,27.7821 86.0332,28.3291 C85.7272,28.6141 85.3112,29.1611 85.0922,29.5551 C83.4072,28.9201 81.9412,27.9351 80.7152,26.6661 C79.2492,28.0451 77.5202,29.0511 75.7042,29.7731 C75.5292,29.4021 75.1342,28.8321 74.8502,28.5261 C76.6222,27.9351 78.3522,26.9061 79.7742,25.5931 C78.7672,24.2811 77.9792,22.7261 77.3892,21.0191 L78.3962,20.7571 L76.4472,20.7571 L76.4472,19.3781 L83.6912,19.3781 L83.9332,19.3121 L84.8732,19.7281 Z M67.7372,20.5811 L73.6022,20.5811 L73.6022,19.3121 L67.7372,19.3121 L67.7372,20.5811 Z M73.8432,19.9691 L73.8432,18.1091 L67.4752,18.1091 L67.4752,19.9691 L66.1402,19.9691 L66.1402,16.8181 L75.2222,16.8181 L75.2222,19.9691 L73.8432,19.9691 Z M69.9922,12.8561 L66.0962,12.8561 L66.0962,11.5211 L69.9922,11.5211 L69.9922,9.8141 L71.5022,9.8141 L71.5022,11.5211 L75.2652,11.5211 L75.2652,12.8561 L71.5022,12.8561 L71.5022,14.3221 L74.5662,14.3221 L74.5662,15.6141 L66.7962,15.6141 L66.7962,14.3221 L69.9922,14.3221 L69.9922,12.8561 Z M75.4192,24.9151 C75.5072,25.3311 75.6822,25.8341 75.8132,26.1411 C73.4492,27.6721 72.6402,28.2851 72.2892,28.6571 L72.0492,28.9201 C71.9172,28.5481 71.5672,27.8701 71.3492,27.5411 C71.6112,27.3441 71.9392,26.9061 71.9392,26.0531 L71.9392,23.1201 L69.2252,23.1201 L69.2252,24.5431 C69.2252,26.1841 68.8322,28.2201 66.9052,29.5551 C66.6872,29.2701 66.1402,28.8111 65.8332,28.6141 C67.5842,27.4321 67.8472,25.8341 67.8472,24.5211 L67.8472,21.7851 L73.3182,21.7851 L73.3182,26.1841 L75.4192,24.9151 Z" id="Fill-18" fill="#FFB300"></path>
                <path d="M101.927,25.4403 C104.049,26.0753 106.96,27.0603 108.493,27.7163 L107.595,28.9203 C106.129,28.2633 103.196,27.1913 101.029,26.4693 L101.927,25.4403 Z M93.48,20.1663 L98.776,20.1663 L98.776,18.6563 L93.48,18.6563 L93.48,20.1663 Z M93.48,17.4953 L98.776,17.4953 L98.776,16.0513 L93.48,16.0513 L93.48,17.4953 Z M93.48,14.8913 L98.776,14.8913 L98.776,13.4253 L93.48,13.4253 L93.48,14.8913 Z M108.712,23.1643 L108.712,24.4993 L99.738,24.4993 L99.738,29.7513 L98.141,29.7513 L98.141,24.4993 L89.299,24.4993 L89.299,23.1643 L98.141,23.1643 L98.141,21.6763 L99.738,21.6763 L99.738,23.1643 L108.712,23.1643 Z M96.631,26.1843 C95.099,27.3883 92.276,28.5483 90.043,29.0733 C89.824,28.6793 89.365,28.1323 89.037,27.8263 C91.269,27.4103 93.982,26.5563 95.383,25.5713 L96.631,26.1843 Z M91.882,15.1983 C91.312,15.8103 90.656,16.4013 89.977,16.9703 C89.715,16.6203 89.19,16.1393 88.818,15.9203 C91.203,14.1033 92.954,11.6533 93.895,9.7483 L95.558,10.0553 C95.186,10.7113 94.792,11.4333 94.311,12.1123 L99.169,12.1123 C98.907,11.4773 98.534,10.7333 98.184,10.1423 L99.673,9.6833 C100.154,10.4493 100.679,11.4123 100.942,12.1123 L107.377,12.1123 L107.377,13.4253 L100.351,13.4253 L100.351,14.8913 L106.501,14.8913 L106.501,16.0513 L100.351,16.0513 L100.351,17.4963 L106.566,17.4963 L106.566,18.6563 L100.351,18.6563 L100.351,20.1663 L108.098,20.1663 L108.098,21.4793 L93.479,21.4793 L93.479,22.1363 L91.882,22.1363 L91.882,15.1983 Z" id="Fill-20" fill="#FFB300"></path>
                <mask id="mask-4" fill="white">
                    <use xlink:href="#path-3"></use>
                </mask>
                <g id="Clip-23"></g>
                <path d="M124.736,15.2416 L128.785,15.2416 L128.785,12.1556 L124.736,12.1556 L124.736,15.2416 Z M124.648,27.6946 L128.521,27.6946 L128.521,24.4776 L124.648,24.4776 L124.648,27.6946 Z M123.225,16.6426 L130.36,16.6426 L130.36,10.7556 L123.225,10.7556 L123.225,16.6426 Z M115.916,27.6946 L119.549,27.6946 L119.549,24.4776 L115.916,24.4776 L115.916,27.6946 Z M115.456,15.2416 L119.33,15.2416 L119.33,12.1556 L115.456,12.1556 L115.456,15.2416 Z M126.049,20.2976 C127.69,21.6326 130.075,22.7266 132.373,23.2956 C132.001,23.6026 131.564,24.1926 131.344,24.5866 C130.929,24.4556 130.513,24.3246 130.097,24.1706 L130.097,29.6426 L128.521,29.6426 L128.521,29.1166 L124.648,29.1166 L124.648,29.7516 L123.137,29.7516 L123.137,23.0546 L127.668,23.0546 C126.268,22.2886 124.998,21.3256 124.013,20.2976 L119.92,20.2976 C118.98,21.2816 117.842,22.2236 116.485,23.0546 L121.102,23.0546 L121.102,29.6426 L119.549,29.6426 L119.549,29.1166 L115.915,29.1166 L115.915,29.7516 L114.405,29.7516 L114.405,24.1926 C113.924,24.4116 113.443,24.6306 112.917,24.8276 C112.786,24.4556 112.348,23.8646 112.042,23.6026 C114.405,22.7266 116.31,21.5666 117.776,20.2976 L112.436,20.2976 L112.436,18.8526 L119.177,18.8526 C119.811,18.1306 120.292,17.3646 120.643,16.6426 L113.99,16.6426 L113.99,10.7556 L120.884,10.7556 L120.884,16.4016 L122.437,16.7086 C122.066,17.4306 121.627,18.1526 121.124,18.8526 L127.23,18.8526 C126.508,18.3716 125.501,17.8676 124.626,17.5396 L125.479,16.6866 C126.596,17.0586 127.974,17.7366 128.696,18.3056 L128.171,18.8526 L131.958,18.8526 L131.958,20.2976 L126.049,20.2976 Z" id="Fill-22" fill="#FFB300" mask="url(#mask-4)"></path>
            </g>
        </g>
    </g>
</svg>